<svg xmlns="http://www.w3.org/2000/svg" viewBox="0 0 184.75 68.37"><defs><style>.cls-1{fill:#fff;fill-rule:evenodd;}</style></defs><title>Begin button</title><g id="Layer_2" data-name="Layer 2"><g id="Begin_button" data-name="Begin button"><g id="Rectangle_2_copy_3" data-name="Rectangle 2 copy 3"><rect width="184.75" height="68.37"/></g><g id="begin"><path class="cls-1" d="M56.48,28.38c-3.35,0-6.21,1.53-7.25,3.87h0V22.84H43V42.23h5.31l.8-3.45h0c1,2.36,3.92,3.87,7.3,3.87,4.79,0,7.91-2.81,7.91-7.12S61.27,28.38,56.48,28.38ZM53.6,38.57c-2.78,0-4.63-1.2-4.63-3s1.85-3.07,4.63-3.07,4.63,1.22,4.63,3.07S56.41,38.57,53.6,38.57ZM77.67,28.38c-6.22,0-10.56,2.93-10.56,7.12,0,4.37,4.68,7.15,11.6,7.15,3.58,0,7-.8,8.84-2l-1.69-2.91a15.36,15.36,0,0,1-6.71,1.35c-2.52,0-4.86-.62-5.57-2.18h14a5.47,5.47,0,0,0,.19-1.4C87.81,31.21,83.78,28.38,77.67,28.38ZM73.48,34.3c.23-1.5,1.92-2.57,4.13-2.57s3.93,1,4,2.57Zm32.11-2.13h0c-1-2.31-3.69-3.79-6.84-3.79-5,0-8.16,2.73-8.16,7s3.09,6.84,7.93,6.84c3.12,0,5.9-1,7.05-2.65h0v.65c0,2.37-2.62,3.85-6.78,3.85a15,15,0,0,1-7.18-1.74l-2,4C91.42,47.41,95,48.11,99,48.11c7.8,0,12.66-3.09,12.66-8V28.79h-5.31Zm-4.34,6.61c-2.76,0-4.53-1.3-4.53-3.25s1.77-3.25,4.53-3.25,4.52,1.3,4.52,3.25S104,38.78,101.25,38.78Zm17.62-17.4c-2,0-3.41,1.22-3.41,3a3.43,3.43,0,0,0,6.81,0C122.27,22.6,120.84,21.38,118.87,21.38ZM115.8,42.23h6.14V28.82H115.8Zm23.33-13.85c-3.35,0-5.9,1.45-7.15,3.69h0l-.65-3.25H126V42.23h6.14V35.94c0-2.55,1.58-4,4.18-4,2.29,0,3.62,1.27,3.62,3.4v6.94h6.11l0-7.59C146.1,30.77,143.39,28.38,139.13,28.38Z"/></g></g></g></svg>