<svg xmlns="http://www.w3.org/2000/svg" width="123.4" height="34.2" viewBox="0 0 246.75 68.37">
  <path
    d="M36.81 35.19c0-4.32 4.19-7.19 10.4-7.19 5.2 0 9 2.08 9.72 5.26l-5.72.93c-.34-1.48-1.72-2.41-3.74-2.41-2.76 0-4.53 1.27-4.53 3.38s1.85 3.37 4.89 3.37c2.63 0 4.52-1.19 4.94-3.14l5.69.88c-.75 3.62-5 6-10.71 6-6.63.04-10.97-2.77-10.94-7.08zM60.36 35.19c0-4.32 4.26-7.16 10.76-7.16s10.8 2.84 10.8 7.16-4.27 7.12-10.8 7.12-10.76-2.81-10.76-7.12zm15.39 0c0-2.14-1.82-3.54-4.63-3.54s-4.62 1.4-4.62 3.54 1.82 3.53 4.62 3.53 4.63-1.4 4.63-3.53zM104.59 34.3v7.59h-6.14V35c0-2.13-1.33-3.41-3.61-3.41-2.6 0-4.19 1.51-4.19 4.06v6.29h-6.14V28.48h5.31l.65 3.25c1.24-2.24 3.79-3.7 7.15-3.7 4.29-.03 6.99 2.4 6.97 6.27zM110.2 37.11v-4.89h-3.75v-3.74h3.75v-3.59l6.13-1.09v4.68h8.19v3.74h-8.19v3.51c0 1.61.84 2.45 2.71 2.45a6.49 6.49 0 004.63-2l1.3 3.46a10.59 10.59 0 01-7.7 2.65c-4.39.02-7.07-1.96-7.07-5.18zM127 24c0-1.77 1.43-3 3.4-3s3.41 1.22 3.41 3a3.43 3.43 0 01-6.81 0zm.34 4.45h6.13v13.44h-6.13zM156.72 34.3v7.59h-6.11V35c0-2.13-1.33-3.41-3.61-3.41-2.6 0-4.19 1.51-4.19 4.06v6.29h-6.14V28.48H142l.65 3.25c1.25-2.24 3.8-3.7 7.15-3.7 4.2-.03 6.94 2.4 6.92 6.27zM159.32 36.07v-7.59h6.11v6.94c0 2.13 1.33 3.4 3.62 3.4 2.6 0 4.18-1.5 4.18-4v-6.34h6.14v13.41h-5.31l-.65-3.25c-1.25 2.24-3.8 3.7-7.15 3.7-4.26 0-6.97-2.4-6.94-6.27zM182 35.16C182 31 186.38 28 192.6 28s10.14 2.84 10.14 7.16a5.52 5.52 0 01-.19 1.4h-14c.71 1.56 3.05 2.18 5.57 2.18a15.36 15.36 0 006.71-1.35l1.69 2.91c-1.82 1.17-5.26 2-8.84 2-6.96.01-11.68-2.77-11.68-7.14zM196.55 34c-.08-1.53-1.85-2.57-4-2.57s-3.9 1.06-4.13 2.57z"/>
</svg>
