<svg xmlns="http://www.w3.org/2000/svg" viewBox="0 0 110 33"><defs><style>.cls-1{fill:#35dace;fill-rule:evenodd;}</style></defs><title>fl</title><g id="Layer_2" data-name="Layer 2"><g id="fl"><g id="fluc_bkg" data-name="fluc bkg"><rect width="110" height="33"/></g><g id="text_copy_4" data-name="text copy 4"><path class="cls-1" d="M14.54,8a2.37,2.37,0,0,1,2.3,1.88l2-1.88c-.63-1.75-2.42-2.83-4.89-2.83-3.2,0-5.22,1.64-5.22,4.26v2.25H5.92v2.65H8.7l0,10.85H12.6V14.29h5.1V11.64H12.6V9.92A1.85,1.85,0,0,1,14.54,8Zm8.12,17.18h3.91V5.55H22.66ZM41,19.66a2.87,2.87,0,0,1-3.11,3,2.06,2.06,0,0,1-2.26-2.2V11.64H31.74v9.5c0,2.75,1.73,4.37,4.56,4.37a5.35,5.35,0,0,0,4.77-2.41h0l.51,2h3.28V11.64H41Zm16,3.07c-2.09,0-3.52-1.64-3.52-4.34s1.25-4.34,3.13-4.34a3.05,3.05,0,0,1,2.89,2.72L63.09,16c-.65-3-3.13-4.82-6.53-4.82-4.21,0-7,2.81-7,7.2s2.86,7.2,7.37,7.2c3.79,0,6.53-2.17,7.07-5.53l-3.61-.59A3.46,3.46,0,0,1,57,22.73Zm18.29-4.1,2.89-1.43c3.13-1.48,4.33-3,4.33-5.56,0-3.49-2.66-5.82-6.71-5.82-4.27,0-7.19,2.59-7.31,6.51l4.26.69c0-2.68,1.2-4.08,2.93-4.08a2.43,2.43,0,0,1,2.5,2.67c0,1.51-.68,2.36-2.53,3.26l-2.69,1.35c-3.52,1.67-4.86,3.6-4.86,7.17v1.75H82.49v-3H72.55C72.55,20.67,73.18,19.71,75.27,18.63Zm22.62-3.52a4.48,4.48,0,0,0,3.37-4.29c0-3.12-2.6-5.06-6.72-5.06s-6.74,2-6.74,5.06a4.47,4.47,0,0,0,3.31,4.29A4.9,4.9,0,0,0,86.88,20c0,3.47,2.89,5.62,7.66,5.62s7.64-2.12,7.64-5.62C102.18,17.49,100.57,15.66,97.89,15.11Zm-3.35-6.3a2.41,2.41,0,0,1,2.6,2.57,2.48,2.48,0,0,1-2.6,2.7,2.51,2.51,0,0,1-2.65-2.7A2.44,2.44,0,0,1,94.54,8.81Zm0,13.76c-2,0-3.34-1.14-3.34-2.94s1.32-3,3.34-3,3.32,1.19,3.32,3S96.54,22.57,94.54,22.57Z"/></g></g></g></svg>