<svg xmlns="http://www.w3.org/2000/svg" viewBox="0 0 172 33"><defs><style>.cls-1{fill:#35dace;fill-rule:evenodd;}</style></defs><title>fr</title><g id="Layer_2" data-name="Layer 2"><g id="fr"><g id="friday_bkg" data-name="friday bkg"><rect width="172" height="33"/></g><g id="friday"><path class="cls-1" d="M8.29,24.86h4.36V17.34H19v-3H12.65v-5h8.14V6.06H8.29ZM31.74,11a4.05,4.05,0,0,0-3.84,2.65h0l-.48-2.25H24.23v13.5h3.9V17.6c0-2.48.93-3.94,2.48-3.94,1.19,0,1.94.95,2,2.67l3.28-.82C35.8,12.63,34.25,11,31.74,11Zm10.38-5.9A2.16,2.16,0,0,0,39.7,7.15a2.17,2.17,0,0,0,2.42,2.12,2.18,2.18,0,0,0,2.45-2.12A2.17,2.17,0,0,0,42.12,5.06Zm-2,19.8h3.91V11.36H40.15ZM59.56,13.37h0A5.06,5.06,0,0,0,55,11c-3.73,0-6.18,2.75-6.18,7.15s2.45,7.14,6.18,7.14a5.1,5.1,0,0,0,4.68-2.49h0l.45,2.1h3.34V5.27H59.56Zm-3.37,8.84c-2.12,0-3.52-1.59-3.52-4.1S54.07,14,56.19,14s3.52,1.62,3.52,4.11S58.34,22.21,56.19,22.21Zm26.05.34c-.45,0-.69-.26-.69-.76V15.94c0-3-2.47-5-6.41-5s-6.59,2-6.71,4.58l3.58.74a2.9,2.9,0,0,1,3.1-2.68c1.52,0,2.65.72,2.65,1.86a1.2,1.2,0,0,1-1.25,1.21l-2.42.24c-4,.37-6.08,2-6.08,4.45s2,3.86,4.92,3.86a5.42,5.42,0,0,0,4.77-2.3h0l.06.29a3,3,0,0,0,3.19,2A5.4,5.4,0,0,0,84.44,24l-1.07-2A1.65,1.65,0,0,1,82.24,22.55ZM77.67,19.4a3.1,3.1,0,0,1-3.31,3.15c-1.43,0-2.44-.58-2.44-1.59s1-1.77,3.07-2l2.68-.27Zm19.48-8v8.55a2.69,2.69,0,0,1-2.9,2.75,2.32,2.32,0,0,1-2.47-2.52V11.36H87.87v9.15c0,3.1,1.94,5,5.1,5a4.84,4.84,0,0,0,4.21-2.38h0v1c0,2.38-1.58,3.79-4.18,3.79a5.89,5.89,0,0,1-4.62-2.12l-2,2.33a9.06,9.06,0,0,0,7,2.72c4.77,0,7.72-2.46,7.72-6.56l0-12.94Zm27-.4a5.65,5.65,0,0,0-5,2.65h0A4.38,4.38,0,0,0,114.73,11,5.1,5.1,0,0,0,110,13.53h0l-.47-2.17h-3.2v13.5h3.91V17.15c0-2,1.11-3.23,3-3.23,1.53,0,2.42.82,2.42,2.17v8.77h3.88l0-7.71c0-2,1.1-3.23,3-3.23a2.12,2.12,0,0,1,2.42,2.17l0,8.77h3.9V15.59C128.8,12.68,127.07,11,124.15,11Zm11.92-5.9a2.15,2.15,0,0,0-2.42,2.09,2.45,2.45,0,0,0,4.86,0A2.16,2.16,0,0,0,136.07,5.06Zm-2,19.8H138V11.36h-3.9Zm9.26,0h3.91V5.27h-3.91Zm17.19-8.47,5-5h-4.53l-4.62,4.89h0v-11H152.5V24.86h3.91v-4.5L158,18.74l3.61,6.12h4.2Z"/></g></g></g></svg>