<svg xmlns="http://www.w3.org/2000/svg" viewBox="0 0 177 33"><defs><style>.cls-1{fill:#35dace;fill-rule:evenodd;}</style></defs><title>hc</title><g id="Layer_2" data-name="Layer 2"><g id="hc"><g id="hakapic_bkg" data-name="hakapic bkg"><rect width="177" height="33"/></g><g id="hakapic"><path class="cls-1" d="M17,10.75a5.25,5.25,0,0,0-4.71,2.41h0V5H8.34V24.62h3.91v-8a2.85,2.85,0,0,1,3.1-3,2.06,2.06,0,0,1,2.26,2.2v8.84h3.88V15.11C21.49,12.34,19.82,10.75,17,10.75ZM40.17,22.31c-.45,0-.69-.26-.69-.76V15.7c0-3-2.47-5-6.41-5s-6.59,2-6.71,4.58l3.58.74A2.9,2.9,0,0,1,33,13.31c1.52,0,2.65.72,2.65,1.86a1.21,1.21,0,0,1-1.25,1.22L32,16.62c-4,.37-6.09,2-6.09,4.45s2,3.86,4.92,3.86a5.45,5.45,0,0,0,4.78-2.3h0l.06.29a3,3,0,0,0,3.2,2,5.49,5.49,0,0,0,3.46-1.16l-1.08-2A1.61,1.61,0,0,1,40.17,22.31Zm-4.56-3.15a3.11,3.11,0,0,1-3.32,3.15c-1.43,0-2.44-.58-2.44-1.58s.95-1.78,3.07-2l2.69-.26Zm23.79-8H54.86L50.24,16h0V5H46.3V24.62h3.91v-4.5l1.61-1.62,3.61,6.12h4.21l-5.28-8.47ZM76.8,22.31c-.45,0-.69-.26-.69-.76V15.7c0-3-2.47-5-6.41-5s-6.59,2-6.71,4.58l3.58.74a2.9,2.9,0,0,1,3.1-2.68c1.52,0,2.65.72,2.65,1.86a1.21,1.21,0,0,1-1.25,1.22l-2.42.23c-4,.37-6.08,2-6.08,4.45s2,3.86,4.92,3.86a5.42,5.42,0,0,0,4.77-2.3h0l.06.29a3,3,0,0,0,3.19,2A5.45,5.45,0,0,0,79,23.8l-1.07-2A1.63,1.63,0,0,1,76.8,22.31Zm-4.57-3.15a3.1,3.1,0,0,1-3.31,3.15c-1.43,0-2.44-.58-2.44-1.58s1-1.78,3.07-2l2.68-.26Zm19.2-8.44a5.1,5.1,0,0,0-4.68,2.49h0l-.45-2.09H82.93V30.18h3.91V22.61h0A5.08,5.08,0,0,0,91.43,25c3.73,0,6.18-2.78,6.18-7.14S95.16,10.72,91.43,10.72ZM90.21,22c-2.15,0-3.52-1.61-3.52-4.1s1.37-4.11,3.52-4.11,3.52,1.59,3.52,4.11S92.33,22,90.21,22Zm12.1,2.65h3.91V11.12h-3.91Zm2-19.8a2.17,2.17,0,0,0-2.42,2.09,2.46,2.46,0,0,0,4.87,0A2.18,2.18,0,0,0,104.28,4.82Zm20.37,6.3h-4.54L115.49,16h0V5h-3.91V24.62h3.91v-4.5l1.61-1.62,3.61,6.12h4.21l-5.28-8.47Zm6.55,9.61a2.12,2.12,0,1,0,2.44,2.09A2.19,2.19,0,0,0,131.2,20.73Zm16.07-10a5.38,5.38,0,0,0-4.78,2.41h0l-.5-2h-3.28v13.5h3.9v-8a2.86,2.86,0,0,1,3.11-3,2.06,2.06,0,0,1,2.26,2.2v8.84h3.88V15.11C151.83,12.36,150.1,10.75,147.27,10.75Zm16.66-.08c-4.57,0-7.52,2.8-7.52,7.17s3,7.23,7.52,7.23,7.51-2.84,7.51-7.23S168.49,10.67,163.93,10.67Zm0,11.43c-2.24,0-3.64-1.64-3.64-4.26s1.4-4.21,3.64-4.21,3.64,1.62,3.64,4.21S166.13,22.1,163.93,22.1Z"/></g></g></g></svg>