<svg xmlns="http://www.w3.org/2000/svg" viewBox="0 0 642 33"><defs><style>.cls-1{fill:#35dace;fill-rule:evenodd;}</style></defs><title>li</title><g id="Layer_2" data-name="Layer 2"><g id="li"><g id="liaf_bkg" data-name="liaf bkg"><rect width="642" height="33"/></g><g id="liaf"><path class="cls-1" d="M12.86,5.65H8.5V24.44H20.79V21.13H12.86Zm19.08,4.84c-4.56,0-7.51,2.81-7.51,7.17s2.95,7.23,7.51,7.23,7.52-2.83,7.52-7.23S36.51,10.49,31.94,10.49Zm0,11.43c-2.23,0-3.64-1.64-3.64-4.26s1.41-4.21,3.64-4.21,3.64,1.62,3.64,4.21S34.15,21.92,31.94,21.92ZM51.3,7.26a2.37,2.37,0,0,1,2.3,1.88l2-1.88c-.63-1.75-2.42-2.83-4.89-2.83-3.2,0-5.22,1.64-5.22,4.26v2.25H42.68v2.65h2.78l0,10.85h3.87V13.59h5.1V10.94h-5.1V9.22A1.85,1.85,0,0,1,51.3,7.26Zm14.35,3.23c-4.56,0-7.52,2.81-7.52,7.17s3,7.23,7.52,7.23,7.52-2.83,7.52-7.23S70.21,10.49,65.65,10.49Zm0,11.43c-2.24,0-3.64-1.64-3.64-4.26s1.4-4.21,3.64-4.21,3.64,1.62,3.64,4.21S67.86,21.92,65.65,21.92ZM84.74,22c-1.16,0-1.85-.76-1.85-2.06V13.59h5.16V10.94H82.89V6.52L79,7.29v3.65H76.39v2.65H79v7c0,2.65,1.84,4.31,5,4.31,2.44,0,4.29-1.11,4.89-3L87,20A2.26,2.26,0,0,1,84.74,22Zm15.34.22a3.76,3.76,0,0,1-4-3.52h10.23a4.85,4.85,0,0,0,.12-1.28c0-4.23-2.72-6.93-7-6.93-4.42,0-7.25,2.78-7.25,7.07,0,4.44,3.13,7.33,7.93,7.33,3.17,0,5.79-1.4,6.63-3.71l-3-1.06A3.69,3.69,0,0,1,100.08,22.22Zm-.68-9.06c1.82,0,2.92,1.19,3,3.29H96C96.3,14.41,97.43,13.16,99.4,13.16Zm20.4-2.59A5.38,5.38,0,0,0,115,13h0l-.5-2h-3.28v13.5h3.9v-8a2.87,2.87,0,0,1,3.1-3,2.06,2.06,0,0,1,2.27,2.2v8.84h3.88v-9.5C124.36,12.18,122.63,10.57,119.8,10.57Zm18.52,13.87h4.35V5.65h-4.35Zm18.56-13.87A5.35,5.35,0,0,0,152.11,13h0l-.51-2h-3.28v13.5h3.91v-8a2.86,2.86,0,0,1,3.1-3,2.06,2.06,0,0,1,2.27,2.2v8.84h3.88v-9.5C161.45,12.18,159.72,10.57,156.88,10.57ZM173.65,22c-1.16,0-1.85-.76-1.85-2.06V13.59H177V10.94H171.8V6.52l-3.88.77v3.65H165.3v2.65h2.62v7c0,2.65,1.85,4.31,5,4.31,2.45,0,4.3-1.11,4.9-3L176,20A2.27,2.27,0,0,1,173.65,22Zm15.34.22a3.75,3.75,0,0,1-4.05-3.52h10.23a4.85,4.85,0,0,0,.12-1.28c0-4.23-2.72-6.93-7-6.93-4.42,0-7.25,2.78-7.25,7.07,0,4.44,3.13,7.33,7.93,7.33,3.16,0,5.79-1.4,6.62-3.71l-3-1.06A3.7,3.7,0,0,1,189,22.22Zm-.68-9.06c1.82,0,2.92,1.19,3,3.29h-6.41C185.2,14.41,186.34,13.16,188.31,13.16Zm19.32-2.62a4.07,4.07,0,0,0-3.85,2.65h0l-.48-2.25h-3.16v13.5H204V17.19c0-2.49.93-4,2.48-4,1.19,0,1.93,1,2,2.68l3.29-.82C211.69,12.21,210.14,10.54,207.63,10.54Zm16.93,0A5.38,5.38,0,0,0,219.78,13h0l-.5-2H216v13.5h3.9v-8a2.87,2.87,0,0,1,3.1-3,2.06,2.06,0,0,1,2.27,2.2v8.84h3.88v-9.5C229.12,12.18,227.39,10.57,224.56,10.57ZM247.8,22.14c-.45,0-.69-.27-.69-.77V15.52c0-3-2.48-5-6.41-5s-6.6,2-6.71,4.58l3.57.74a2.9,2.9,0,0,1,3.11-2.67c1.52,0,2.65.71,2.65,1.85a1.22,1.22,0,0,1-1.25,1.22l-2.42.24c-4,.37-6.08,2-6.08,4.44s2,3.87,4.92,3.87a5.42,5.42,0,0,0,4.77-2.31h0l.06.3a3,3,0,0,0,3.19,2A5.39,5.39,0,0,0,250,23.62l-1.07-2A1.67,1.67,0,0,1,247.8,22.14ZM243.23,19a3.1,3.1,0,0,1-3.31,3.15c-1.43,0-2.44-.59-2.44-1.59s1-1.78,3.07-2l2.68-.26Zm16.83,3c-1.16,0-1.84-.76-1.84-2.06V13.59h5.16V10.94h-5.16V6.52l-3.88.77v3.65h-2.63v2.65h2.63v7c0,2.65,1.85,4.31,5,4.31,2.44,0,4.29-1.11,4.89-3L262.36,20A2.26,2.26,0,0,1,260.06,22Zm8.21,2.44h3.91V10.94h-3.91Zm2-19.8a2.17,2.17,0,0,0-2.42,2.09,2.45,2.45,0,0,0,4.86,0A2.17,2.17,0,0,0,270.24,4.64Zm14.13,5.85c-4.57,0-7.52,2.81-7.52,7.17s2.95,7.23,7.52,7.23,7.51-2.83,7.51-7.23S288.93,10.49,284.37,10.49Zm0,11.43c-2.24,0-3.64-1.64-3.64-4.26s1.4-4.21,3.64-4.21S288,15.07,288,17.66,286.57,21.92,284.37,21.92Zm20.76-11.35A5.35,5.35,0,0,0,300.36,13h0l-.51-2h-3.28v13.5h3.91v-8a2.86,2.86,0,0,1,3.1-3,2.06,2.06,0,0,1,2.27,2.2v8.84h3.87v-9.5C309.69,12.18,308,10.57,305.13,10.57Zm23.24,11.57c-.45,0-.69-.27-.69-.77V15.52c0-3-2.47-5-6.41-5s-6.59,2-6.71,4.58l3.58.74a2.89,2.89,0,0,1,3.1-2.67c1.52,0,2.66.71,2.66,1.85a1.22,1.22,0,0,1-1.26,1.22l-2.41.24c-4,.37-6.09,2-6.09,4.44s2,3.87,4.92,3.87a5.45,5.45,0,0,0,4.78-2.31h0l.06.3a3,3,0,0,0,3.19,2,5.43,5.43,0,0,0,3.46-1.16l-1.08-2A1.64,1.64,0,0,1,328.37,22.14ZM323.81,19a3.11,3.11,0,0,1-3.31,3.15c-1.44,0-2.45-.59-2.45-1.59s.95-1.78,3.07-2l2.69-.26Zm10.69,5.45h3.91V4.85H334.5ZM358,5.65l-6.86,18.79h4.41l1.34-3.94h7.61l1.34,3.94h4.45L363.35,5.65Zm-.33,11.93,3-8.68h.06l2.95,8.68Zm24.23-7A4.07,4.07,0,0,0,378,13.19h0l-.47-2.25h-3.16v13.5h3.9V17.19c0-2.49.93-4,2.48-4,1.19,0,1.94,1,2,2.68L386,15.1C385.91,12.21,384.36,10.54,381.85,10.54Zm16,11.46c-1.17,0-1.85-.76-1.85-2.06V13.59h5.16V10.94H396V6.52l-3.88.77v3.65h-2.62v2.65h2.62v7c0,2.65,1.85,4.31,5,4.31,2.45,0,4.3-1.11,4.89-3L400.17,20A2.25,2.25,0,0,1,397.88,22Zm16.5-5.37-2.18-.5c-1.73-.45-2.47-.93-2.44-1.7S410.62,13,411.9,13a2.3,2.3,0,0,1,2.6,2.14l3.49-.5c-.24-2.62-2.78-4.13-6-4.13-3.37,0-5.75,1.67-5.75,4.24,0,2,1.22,3.17,4.11,3.83l2.18.51c1.88.42,2.68.9,2.71,1.72s-1.19,1.56-2.77,1.56c-1.94,0-3.34-1-3.43-2.73l-3.52.5c.12,3.08,3,4.74,6.83,4.74s6.53-1.72,6.53-4.36C418.91,18.54,417.51,17.37,414.38,16.63Zm17.86,7.81h4.36V16.92H443v-3H436.6V9h8.14V5.65h-12.5Zm23.55-2.22a3.76,3.76,0,0,1-4.06-3.52H462a4.85,4.85,0,0,0,.12-1.28c0-4.23-2.72-6.93-7-6.93-4.41,0-7.25,2.78-7.25,7.07,0,4.44,3.13,7.33,7.94,7.33,3.16,0,5.78-1.4,6.62-3.71l-3-1.06A3.67,3.67,0,0,1,455.79,22.22Zm-.69-9.06c1.82,0,2.92,1.19,3,3.29h-6.41C452,14.41,453.13,13.16,455.1,13.16Zm20,3.47-2.18-.5c-1.73-.45-2.47-.93-2.44-1.7S471.3,13,472.58,13a2.3,2.3,0,0,1,2.6,2.14l3.49-.5c-.24-2.62-2.78-4.13-6-4.13-3.37,0-5.75,1.67-5.75,4.24,0,2,1.22,3.17,4.11,3.83l2.18.51c1.88.42,2.68.9,2.71,1.72s-1.19,1.56-2.77,1.56c-1.94,0-3.34-1-3.43-2.73l-3.52.5c.12,3.08,3,4.74,6.83,4.74s6.53-1.72,6.53-4.36C479.59,18.54,478.19,17.37,475.06,16.63ZM491,22c-1.16,0-1.85-.76-1.85-2.06V13.59h5.16V10.94h-5.16V6.52l-3.88.77v3.65h-2.62v2.65h2.62v7c0,2.65,1.85,4.31,5,4.31,2.45,0,4.3-1.11,4.9-3L493.3,20A2.27,2.27,0,0,1,491,22Zm8.2,2.44h3.91V10.94H499.2Zm2-19.8a2.16,2.16,0,0,0-2.41,2.09,2.45,2.45,0,0,0,4.86,0A2.18,2.18,0,0,0,501.17,4.64Zm13.41,16.91h0l-3.28-10.61h-4.06L512,24.44h5l4.9-13.5h-4.06Zm24.44.59c-.45,0-.69-.27-.69-.77V15.52c0-3-2.48-5-6.41-5s-6.6,2-6.71,4.58l3.57.74a2.9,2.9,0,0,1,3.11-2.67c1.52,0,2.65.71,2.65,1.85a1.22,1.22,0,0,1-1.25,1.22l-2.42.24c-4,.37-6.08,2-6.08,4.44s2,3.87,4.92,3.87a5.42,5.42,0,0,0,4.77-2.31h0l.06.3a3,3,0,0,0,3.19,2,5.39,5.39,0,0,0,3.46-1.16l-1.07-2A1.67,1.67,0,0,1,539,22.14ZM534.45,19a3.1,3.1,0,0,1-3.31,3.15c-1.43,0-2.45-.59-2.45-1.59s1-1.78,3.08-2l2.68-.26Zm10.7,5.45h3.91V4.85h-3.91ZM570,17.93l2.9-1.43c3.13-1.48,4.32-3,4.32-5.56,0-3.49-2.65-5.82-6.71-5.82-4.26,0-7.19,2.59-7.31,6.51l4.27.69c0-2.68,1.19-4.08,2.92-4.08a2.44,2.44,0,0,1,2.51,2.67c0,1.51-.69,2.36-2.54,3.26l-2.68,1.35c-3.52,1.67-4.86,3.6-4.86,7.17v1.75h14.4v-3h-9.93C567.25,20,567.88,19,570,17.93ZM590.3,5.12c-5.16,0-8.47,3.78-8.47,9.92S585.14,25,590.3,25s8.48-3.81,8.48-9.93S595.46,5.12,590.3,5.12Zm0,16.59c-2.62,0-4.26-2.51-4.26-6.67s1.64-6.69,4.26-6.69,4.27,2.54,4.27,6.69S593,21.71,590.3,21.71ZM611.51,5.65h-3.93a6.61,6.61,0,0,1-4.66,3.54l1.35,3.21a5.69,5.69,0,0,0,3-2h0V21.34H602.8v3.1h12.29v-3.1h-3.58Zm15.8-.53c-4.65,0-7.6,2.64-7.6,6.56A6,6,0,0,0,626,17.82c2.63,0,4-.79,4.89-1.82,0,4-1.7,6-4.17,6a4,4,0,0,1-4.12-3.81l-3.91.48c.51,3.76,3.32,6.27,7.91,6.27,6.32,0,8.41-4.6,8.41-11.14C635,8.05,632.24,5.12,627.31,5.12Zm0,10a3.15,3.15,0,0,1-3.28-3.41,3.34,3.34,0,1,1,6.68,0A3.19,3.19,0,0,1,627.34,15.12Z"/></g></g></g></svg>